HIERARCHY
ROOT Hips
{
	OFFSET -3.958830 18.904000 13.208200
	CHANNELS 6 Xposition Yposition Zposition Zrotation Yrotation Xrotation 
	JOINT LHipJoint
	{
		OFFSET 0.000000 0.000000 0.000000
		CHANNELS 3 Zrotation Yrotation Xrotation
		JOINT LeftUpLeg
		{
			OFFSET 1.800000 -1.400000 0.085000
			CHANNELS 3 Zrotation Yrotation Xrotation
			JOINT LeftLeg
			{
				OFFSET 2.215000 -6.000000 0.000000
				CHANNELS 3 Zrotation Yrotation Xrotation
				JOINT LeftFoot
				{
					OFFSET 2.500000 -6.900000 0.000000
					CHANNELS 3 Zrotation Yrotation Xrotation
					JOINT LeftToeBase
					{
						OFFSET 0.200000 -0.500000 1.950000
						CHANNELS 3 Zrotation Yrotation Xrotation
						End Site
						{
							OFFSET 0.000000 0.000000 0.000000
						}
					}
				}
			}
		}
	}
	JOINT RHipJoint
	{
		OFFSET 0.000000 0.000000 0.000000
		CHANNELS 3 Zrotation Yrotation Xrotation
		JOINT RightUpLeg
		{
			OFFSET -1.800000 -1.400000 0.085000
			CHANNELS 3 Zrotation Yrotation Xrotation
			JOINT RightLeg
			{
				OFFSET -2.215000 -6.000000 0.000000
				CHANNELS 3 Zrotation Yrotation Xrotation
				JOINT RightFoot
				{
					OFFSET -2.500000 -6.900000 0.000000
					CHANNELS 3 Zrotation Yrotation Xrotation
					JOINT RightToeBase
					{
						OFFSET -0.200000 -0.500000 1.950000
						CHANNELS 3 Zrotation Yrotation Xrotation
						End Site
						{
							OFFSET 0.000000 0.000000 0.000000
						}
					}
				}
			}
		}
	}
	JOINT LowerBack
	{
		OFFSET 0.000000 0.000000 0.000000
		CHANNELS 3 Zrotation Yrotation Xrotation
		JOINT Spine
		{
			OFFSET -0.087000 1.940000 -0.288900
			CHANNELS 3 Zrotation Yrotation Xrotation
			JOINT Spine1
			{
				OFFSET 0.000000 1.950000 0.060000
				CHANNELS 3 Zrotation Yrotation Xrotation
				JOINT Neck
				{
					OFFSET 0.000000 0.000000 0.000000
					CHANNELS 3 Zrotation Yrotation Xrotation
					JOINT Neck1
					{
						OFFSET 0.000000 1.600000 0.340000
						CHANNELS 3 Zrotation Yrotation Xrotation
						JOINT Head
						{
							OFFSET 0.000000 1.667000 -0.240000
							CHANNELS 3 Zrotation Yrotation Xrotation
							End Site
							{
								OFFSET 0.000000 0.000000 0.000000
							}
						}
					}
				}
				JOINT LeftShoulder
				{
					OFFSET 0.000000 0.000000 0.000000
					CHANNELS 3 Zrotation Yrotation Xrotation
					JOINT LeftArm
					{
						OFFSET 2.700000 1.550000 -0.730000
						CHANNELS 3 Zrotation Yrotation Xrotation
						JOINT LeftForeArm
						{
							OFFSET 5.450000 0.000000 0.000000
							CHANNELS 3 Zrotation Yrotation Xrotation
							JOINT LeftHand
							{
								OFFSET 3.450000 0.000000 0.000000
								CHANNELS 3 Zrotation Yrotation Xrotation
								JOINT LeftHandIndex1
								{
									OFFSET 0.750000 0.000000 0.000000
									CHANNELS 3 Zrotation Yrotation Xrotation
									End Site
									{
										OFFSET 0.000000 0.000000 0.000000
									}
								}
							}
						}
					}
				}
				JOINT RightShoulder
				{
					OFFSET 0.000000 0.000000 0.000000
					CHANNELS 3 Zrotation Yrotation Xrotation
					JOINT RightArm
					{
						OFFSET -2.700000 1.550000 -0.730000
						CHANNELS 3 Zrotation Yrotation Xrotation
						JOINT RightForeArm
						{
							OFFSET -5.450000 0.000000 0.000000
							CHANNELS 3 Zrotation Yrotation Xrotation
							JOINT RightHand
							{
								OFFSET -3.450000 0.000000 0.000000
								CHANNELS 3 Zrotation Yrotation Xrotation
								JOINT RightHandIndex1
								{
									OFFSET -0.750000 0.000000 0.000000
									CHANNELS 3 Zrotation Yrotation Xrotation
									End Site
									{
										OFFSET 0.000000 0.000000 0.000000
									}
								}
							}
						}
					}
				}
			}
		}
	}
}
MOTION
Frames: 11
Frame Time: 0.016667
-0.403670 16.407600 -0.515440 1.510945 -4.570238 4.917215 -15.195991 13.935443 2.736203 7.328336 -2.468985 -26.927260 9.806665 2.162121 19.129636 -0.412927 3.181214 3.413570 0.281210 0.210320 0.386600 18.253260 -10.514870 2.662857 -2.364542 1.291918 -13.439299 4.161827 -3.546261 10.079786 0.001105 -2.932034 3.253716 0.220690 0.284860 0.231000 -3.453504 -3.427795 -6.758048 5.710591 1.206111 7.546057 -2.922203 2.637633 2.161044 -1.746184 -11.350701 -10.065048 -27.375220 26.828969 17.353112 -7.108110 23.991290 -2.398870 -10.776572 -0.731993 3.638056 -45.723918 -8.119886 1.697679 -2.105829 -12.083642 -0.421135 -4.073202 3.165775 0.028800 0.331830 -0.064850 0.097670 14.904114 8.004331 4.128100 35.236260 4.767163 -3.863921 5.577428 19.562452 -0.338678 2.531134 -1.532635 -0.148840 0.001760 -0.144780 -0.096580 
-0.401720 16.395590 -0.512070 1.185295 -3.515209 5.403397 -15.164286 13.858539 2.687037 7.804849 -2.319362 -26.558077 8.621250 2.440715 18.411667 -0.424147 3.150250 3.440104 0.288130 0.225700 0.367460 18.296277 -10.529585 2.683539 -2.012932 1.356898 -13.652830 4.359202 -3.526513 9.906036 0.009629 -2.946975 3.253249 0.241590 0.320670 0.227080 -3.577657 -3.241990 -6.706893 6.647774 0.947208 6.831557 -3.393424 2.357095 1.918280 -1.917737 -11.468301 -9.800304 -27.296476 27.112103 16.715830 -6.067450 23.527420 -1.696420 -10.927908 -0.249646 3.567046 -46.337243 -7.084969 1.689272 -2.994075 -9.685260 -0.368029 -4.106336 3.170783 0.002700 0.350060 -0.089280 0.116280 15.323792 7.554337 3.821754 35.367430 4.839957 -3.802934 8.311715 20.593182 0.022486 2.515669 -1.569075 -0.154440 0.016600 -0.147500 -0.078730 
-0.399130 16.390340 -0.505710 0.935938 -2.453655 5.840434 -15.133592 13.786868 2.658583 8.266476 -2.195636 -26.291939 6.888483 2.963606 18.833738 -0.415592 3.248039 3.412972 0.289600 0.235250 0.341790 18.332436 -10.560622 2.694720 -1.803584 1.447786 -13.982575 4.566391 -3.550653 10.106304 0.022050 -2.960946 3.258376 0.255540 0.351300 0.216440 -3.689100 -3.040105 -6.669154 7.478300 0.836972 6.305235 -3.965280 2.223969 1.401339 -1.928798 -11.594067 -9.476344 -27.220386 27.281692 16.165153 -5.026150 22.971950 -1.035010 -11.866798 0.300204 3.276149 -46.369123 -5.924724 1.422974 -3.733377 -7.880702 -0.353813 -4.129697 3.169883 -0.019740 0.361090 -0.113150 0.133110 16.207018 7.075717 3.595222 35.709032 4.488221 -3.885789 11.009018 21.551369 0.416723 2.502538 -1.602362 -0.159230 0.032610 -0.147080 -0.061280 
-0.392700 16.390300 -0.498770 0.859948 -0.620955 6.117675 -15.121151 13.731147 2.671280 8.381186 -2.210686 -26.253060 5.223903 3.549876 20.121962 -0.386347 3.426137 3.345589 0.296330 0.244330 0.323410 18.346918 -10.578535 2.695570 -1.795323 1.500967 -14.185793 4.862440 -3.617309 10.392545 0.022131 -2.972773 3.255481 0.258840 0.355870 0.203980 -3.753442 -2.913394 -6.669172 7.993900 0.700975 6.131799 -4.459140 2.048308 0.587751 -1.742032 -11.718170 -9.107395 -27.175402 27.043317 15.933796 -4.105350 22.140980 -0.676560 -13.780580 0.840328 2.702342 -45.713099 -4.920859 1.064228 -4.182078 -6.300733 -0.363203 -4.122793 3.173081 -0.023220 0.345450 -0.120350 0.145640 17.683269 6.581084 3.516271 36.222636 3.454720 -4.272170 13.020716 22.408232 0.731817 2.501324 -1.629560 -0.155210 0.037500 -0.150750 -0.046210 
-0.382460 16.392090 -0.494500 0.963695 1.625445 6.305901 -15.129670 13.686478 2.721938 8.239707 -2.325830 -26.318790 3.477474 4.262806 21.912231 -0.332416 3.690088 3.246303 0.290760 0.232120 0.310400 18.339552 -10.581210 2.682248 -1.844197 1.528120 -14.353887 4.981440 -3.674908 10.740717 0.023238 -2.969889 3.262069 0.240180 0.348640 0.194500 -3.763303 -2.854099 -6.695300 8.108716 0.556022 6.128405 -4.991549 1.818844 -0.364499 -1.261275 -11.739838 -8.653009 -26.793036 26.535644 16.174106 -3.699420 21.559020 -0.342200 -16.162481 1.486160 1.921378 -44.576414 -4.052503 0.628447 -4.465021 -5.131902 -0.372566 -4.105815 3.170495 -0.016850 0.325210 -0.119900 0.151090 19.038551 5.917114 3.429021 37.538984 2.396378 -4.829906 14.470700 23.276566 0.986905 2.509685 -1.645121 -0.148940 0.030310 -0.154830 -0.038000 
-0.364160 16.390450 -0.490050 0.844269 4.057689 6.722466 -15.128798 13.574413 2.788199 8.181666 -2.497408 -26.695105 1.699665 5.101622 23.965029 -0.266264 4.057269 3.120080 0.270710 0.213210 0.277110 18.355593 -10.576634 2.660696 -1.747428 1.611514 -14.746934 5.124601 -3.733972 11.153259 0.037325 -2.981539 3.269175 0.225150 0.372020 0.188590 -3.825489 -2.699278 -6.702269 8.704618 0.473973 5.785193 -5.586441 1.608453 -1.436402 -0.910445 -11.728649 -7.870198 -26.116229 26.039442 16.110893 -3.314710 21.010990 0.372760 -18.451728 2.712026 0.907085 -43.825764 -3.397353 0.201610 -4.735167 -4.654130 -0.384346 -4.113136 3.167423 -0.032700 0.332330 -0.138170 0.163750 20.440971 4.604443 3.019355 39.061960 1.654199 -5.074208 15.244501 22.753648 0.969163 2.524671 -1.655379 -0.150430 0.030610 -0.151530 -0.020850 
-0.341840 16.384320 -0.489070 0.569909 6.794169 7.147614 -15.133190 13.428996 2.882830 8.215601 -2.726201 -27.284354 -0.111347 6.091106 26.287485 -0.176728 4.532957 2.956872 0.233840 0.172420 0.234300 18.374758 -10.552273 2.634193 -1.466810 1.699508 -15.134962 5.236163 -3.792636 11.568608 0.057421 -2.988789 3.282115 0.196460 0.400800 0.181840 -3.888801 -2.534112 -6.726073 9.430801 0.405243 5.404615 -6.328222 1.379459 -2.576865 -0.363894 -11.597757 -7.009231 -25.025686 25.380273 16.208876 -2.877670 20.440800 1.285900 -20.677339 4.093688 -0.200518 -43.399934 -2.832675 -0.317222 -4.519701 -4.762902 -0.392748 -4.122742 3.156068 -0.049200 0.342390 -0.162470 0.170630 21.361590 3.029369 2.544589 41.451783 1.049798 -5.324191 15.476021 21.659907 0.800486 2.549704 -1.647044 -0.155490 0.029410 -0.138790 -0.004920 
-0.316810 16.375500 -0.487840 0.528550 9.782597 7.623781 -15.155827 13.285742 2.994732 7.955375 -3.032991 -27.755890 -1.913398 7.083312 28.261533 -0.078008 4.988769 2.804438 0.209260 0.140310 0.201360 18.375026 -10.514907 2.598644 -1.395811 1.760645 -15.524049 5.356878 -3.826404 11.794639 0.078536 -2.983897 3.302315 0.171710 0.418370 0.169190 -3.901302 -2.410287 -6.752127 9.528091 0.460257 4.959029 -6.583504 1.198598 -3.840183 0.045822 -11.409385 -6.018671 -23.832150 24.634252 16.312197 -2.313540 19.732010 2.154450 -22.454006 5.968965 -1.378876 -43.752499 -2.308572 -0.916501 -4.374688 -5.480935 -0.395328 -4.114775 3.149972 -0.062260 0.343190 -0.185460 0.180150 22.138480 1.007845 1.918388 43.912693 0.403752 -5.538522 15.471537 20.230700 0.576802 2.580605 -1.636954 -0.158340 0.024100 -0.136000 0.007690 
-0.288060 16.363000 -0.488620 0.487822 12.967310 8.003568 -15.178482 13.155568 3.103605 7.503568 -3.363897 -28.096471 -3.422164 7.991604 30.089893 0.019364 5.438258 2.660617 0.167460 0.084470 0.159030 18.372409 -10.494529 2.557709 -1.263044 1.795574 -15.834472 5.162880 -3.827086 12.160541 0.101162 -2.972069 3.322055 0.133840 0.443340 0.159080 -3.914135 -2.285043 -6.778643 9.568283 0.548972 4.637143 -6.565824 1.061674 -5.160935 0.319238 -11.237095 -4.991242 -22.763073 23.725465 16.508032 -1.893730 18.830940 2.890910 -24.121147 8.035409 -2.536600 -44.297488 -1.582327 -1.596891 -4.857105 -6.486856 -0.399464 -4.108425 3.132957 -0.065880 0.343860 -0.209910 0.181740 23.060760 -1.164052 1.256899 46.095563 -0.409338 -5.890857 14.870107 18.941853 0.326810 2.607118 -1.604529 -0.168030 0.026350 -0.115780 0.018560 
-0.253780 16.349450 -0.489210 0.290108 16.507049 8.168094 -15.197648 13.038988 3.195929 7.016945 -3.699154 -28.342627 -4.459837 8.792150 32.061470 0.129429 5.889472 2.519647 0.122120 0.018800 0.119720 18.372017 -10.484642 2.520949 -1.042119 1.795752 -15.928843 5.043255 -3.874010 12.656302 0.118677 -2.979810 3.335337 0.087950 0.463500 0.145890 -3.945813 -2.160146 -6.807836 9.824371 0.604307 4.410231 -6.250258 0.930821 -6.465156 0.443061 -11.082670 -4.005038 -21.863513 22.739896 16.874683 -1.387740 17.780070 3.704190 -25.572018 10.167932 -3.552333 -45.467638 -0.645676 -2.348331 -5.384609 -7.645804 -0.393151 -4.095022 3.112894 -0.066080 0.337060 -0.233420 0.179200 24.051196 -3.361275 0.578411 47.876805 -1.252144 -6.273455 13.945139 17.722249 0.090490 2.638429 -1.562206 -0.177050 0.027710 -0.094180 0.027720 
-0.216340 16.335340 -0.494720 -0.001196 20.227789 8.139974 -15.220541 12.956378 3.274858 6.495318 -3.998339 -28.404392 -5.184411 9.464286 33.864161 0.239601 6.277494 2.396525 0.069970 -0.052110 0.085260 18.359950 -10.487195 2.495040 -0.744408 1.798587 -15.965877 4.955998 -3.971570 13.425026 0.131574 -2.998224 3.345254 0.032680 0.462810 0.125540 -3.968092 -2.061287 -6.856378 10.061071 0.675727 4.396819 -5.851161 0.868696 -7.767944 0.702743 -10.773520 -3.118200 -20.634557 21.436994 17.608797 -1.236710 16.861200 4.328680 -27.031643 12.088354 -4.430994 -46.464090 0.547149 -3.175171 -6.349183 -8.792051 -0.342068 -4.063742 3.089967 -0.056920 0.319420 -0.247580 0.166390 24.817692 -5.422525 0.010340 49.755642 -2.239482 -6.835598 12.874107 16.973550 -0.085581 2.672432 -1.508906 -0.184850 0.020850 -0.074070 0.029190 
